<svg width="24" height="32" viewBox="0 0 24 32" fill="none" xmlns="http://www.w3.org/2000/svg">
<path d="M12.6667 2V9.33333L16.6667 7.33333V2H12.6667Z" fill="#B8E2F5"/>
<path d="M10.8133 12.6667L11.3333 10H5.99996L5.17996 12.6667H10.8133Z" fill="#B8E2F5"/>
<path d="M15.3333 28.6667H0.666656V31.3334H15.3333V28.6667Z" fill="#B8E2F5"/>
<path d="M0.666656 31.3333V27.3333L5.99999 10H11.3333L9.99999 16.8333L15.3333 24.6667V31.3333H0.666656Z" stroke="white" stroke-width="1.33333" stroke-linecap="round" stroke-linejoin="round"/>
<path d="M6 2L2 7.33333L6 10H11.3333L16.6667 7.33333V2H6Z" stroke="white" stroke-width="1.33333" stroke-linecap="round" stroke-linejoin="round"/>
<path d="M22 4.66669H23.3333" stroke="white" stroke-width="1.33333" stroke-linecap="round" stroke-linejoin="round"/>
<path d="M20.6667 2.00002L22 0.666687" stroke="white" stroke-width="1.33333" stroke-linecap="round" stroke-linejoin="round"/>
<path d="M20.6667 7.33337L22 8.66671" stroke="white" stroke-width="1.33333" stroke-linecap="round" stroke-linejoin="round"/>
<path d="M16.6667 4.66669H18" stroke="white" stroke-width="1.33333" stroke-linecap="round" stroke-linejoin="round"/>
<path d="M12.6667 9.33337L16 12.952" stroke="white" stroke-width="1.33333" stroke-linecap="round" stroke-linejoin="round"/>
<path d="M12.6667 2V9.33333" stroke="white" stroke-width="1.33333" stroke-linecap="round" stroke-linejoin="round"/>
</svg>
